<svg width="62" height="62" viewBox="0 0 62 62" fill="none" xmlns="http://www.w3.org/2000/svg">
<path d="M1.88633 23.1129H6.55558V21.3069C5.13709 19.1414 4.31087 16.5546 4.31087 13.7782C4.31075 6.18075 10.4916 0 18.0889 0C25.3819 0 31.3687 5.69601 31.8364 12.8728H35.805C40.5318 12.8728 44.9872 11.1133 48.4257 7.90585V3.94717H52.0549V14.7059C54.059 15.2152 55.8825 16.2968 57.3027 17.8461C59.1157 19.8239 60.1143 22.3917 60.1143 25.0765C60.1143 27.7612 59.1157 30.329 57.3027 32.3068C55.8825 33.856 54.059 34.9377 52.0549 35.447V46.1497H48.4258V42.1948C44.995 39.0204 40.5622 37.2799 35.8611 37.2799H28.4273V44.4366H25.233L30.0717 62H17.8185L12.9797 44.4366H9.99525V35.8316L6.55558 32.392V26.7419H1.88633V23.1129ZM12.9465 33.6507H28.2379V23.0862C25.7176 25.832 22.101 27.5561 18.0889 27.5561C15.1501 27.5561 12.4238 26.6307 10.1846 25.0567V30.8887L12.9465 33.6507ZM18.0889 3.62906C12.4927 3.62906 7.93993 8.18182 7.93993 13.778C7.93993 19.3743 12.4927 23.927 18.0889 23.927C23.6851 23.927 28.2379 19.3743 28.2379 13.778C28.2379 8.18182 23.6851 3.62906 18.0889 3.62906ZM54.6276 29.8545C55.8256 28.5476 56.4853 26.8507 56.4853 25.0763C56.4853 23.3019 55.8256 21.6051 54.6276 20.2982C53.9051 19.51 53.0249 18.9053 52.0549 18.5144V31.6382C53.0248 31.2474 53.9051 30.6427 54.6276 29.8545ZM48.4258 12.5607C45.9615 14.2763 43.1896 15.4616 40.2519 16.0572V34.0837C43.1883 34.671 45.9599 35.8479 48.4258 37.5535V12.5607ZM36.6227 33.6652V16.4855C36.3508 16.4953 31.867 16.5018 31.867 16.5018V33.6507C31.867 33.6507 36.3695 33.6567 36.6227 33.6652ZM24.7982 40.8074V37.2798H13.6243V40.8074H24.7982ZM20.5828 58.3709H25.3077L21.4688 44.4366H16.744L20.5828 58.3709Z" fill="#7B7B7B"/>
<path d="M17.0373 15.5289L16.4824 7.34937H19.8115L19.2567 15.5289H17.0373Z" fill="#7B7B7B"/>
<path d="M18.1729 20.6666C17.2389 20.6666 16.4816 19.9093 16.4816 18.9753C16.4816 18.0412 17.2389 17.2839 18.1729 17.2839C19.107 17.2839 19.8643 18.0412 19.8643 18.9753C19.8643 19.9093 19.107 20.6666 18.1729 20.6666Z" fill="#7B7B7B"/>
</svg>
