<svg width="136" height="136" viewBox="0 0 136 136" fill="none" xmlns="http://www.w3.org/2000/svg">
<path d="M89.424 53.8695C98.4409 45.6487 110.635 34.5305 111.746 7.96875H119.797V0H16.2031V7.96875H24.254C25.3653 34.5305 37.5591 45.6487 46.576 53.8695C52.6246 59.3842 56.0469 62.7595 56.0469 68C56.0469 73.2405 52.6246 76.6158 46.576 82.1304C37.5591 90.3513 25.3653 101.47 24.254 128.031H16.2031V136H119.797V128.031H111.746C110.635 101.47 98.4409 90.3513 89.424 82.1304C83.3754 76.6158 79.9531 73.2405 79.9531 68C79.9531 62.7595 83.3754 59.3842 89.424 53.8695ZM64.0156 97.8663C62.785 98.1203 61.5692 98.4898 60.3827 98.9806L35.9778 109.079C39.9633 98.9458 46.3824 93.0907 51.9448 88.0194C58.1525 82.3597 64.0156 77.014 64.0156 68V97.8663ZM84.0552 88.0194C89.6176 93.0907 96.0364 98.9458 100.022 109.079L75.6173 98.9804C74.4308 98.4895 73.215 98.12 71.9844 97.8661V68C71.9844 77.014 77.8475 82.3597 84.0552 88.0194ZM35.8379 26.5625C33.9113 21.5425 32.5808 15.4812 32.2325 7.96875H103.767C103.419 15.4812 102.089 21.5425 100.162 26.5625H35.8379Z" fill="white"/>
</svg>
